<svg width="777" height="202" viewBox="0 0 777 202" fill="none" xmlns="http://www.w3.org/2000/svg">
<g clip-path="url(#clip0_31_234)">
<path d="M40.56 111.13V155.37C40.56 159.85 42.14 162.22 46.35 162.22H46.88C50.83 162.22 52.41 159.58 52.41 155.37V2.63989H97.18V156.7C97.18 183.82 82.7 200.94 53.47 200.94H40.56C12.38 200.94 0 185.93 0 159.59V111.14H40.56V111.13Z" fill="#595757"/>
<path d="M210.94 148.27C210.94 181.98 191.98 201.46 162.48 201.46H154.06C122.46 201.46 105.07 182.24 105.07 148.27V55.3C105.08 21.6 119.3 0 153.8 0H162.23C196.99 0 210.94 21.86 210.94 55.3V148.26V148.27ZM165.91 50.83C165.91 43.46 163.54 39.77 158.01 39.77C152.48 39.77 150.11 43.46 150.11 50.83V151.16C150.11 156.95 152.22 160.91 158.28 160.91C163.81 160.91 165.92 156.96 165.92 151.16V50.83H165.91Z" fill="#595757"/>
<path d="M262.04 198.56H218.59V2.63989H262.04V71.8999L282.31 2.63989H325.5L298.91 90.0699L327.08 198.57H281.53L262.04 120.36V198.57V198.56Z" fill="#595757"/>
<path d="M327.35 2.63989H372.12V149.85C372.12 156.43 374.49 159.86 379.23 159.86C384.49 159.86 386.34 156.17 386.34 149.85V2.63989H431.11V151.95C431.11 181.71 413.99 201.72 383.18 201.72H374.76C342.11 201.72 327.36 181.97 327.36 151.95V2.63989H327.35Z" fill="#595757"/>
<path d="M439.54 2.63989H491.42L502.21 94.2799L513.53 2.63989H562.52V198.57H525.12V91.6499L508.53 198.57H492.99L476.4 91.6499V198.57H439.53V2.63989H439.54Z" fill="#595757"/>
<path d="M626.53 169.86H606.52L603.62 198.56H565.97L590.97 2.63989H644.43L671.81 198.57H629.68L626.52 169.87L626.53 169.86ZM610.46 131.15H622.57L616.52 71.6299L610.46 131.15Z" fill="#595757"/>
<path d="M716.86 2.63989L739.24 97.4399V2.63989H776.37V198.57H738.19L712.38 96.3899V198.57H674.73V2.63989H716.86Z" fill="#595757"/>
</g>
<defs>
<clipPath id="clip0_31_234">
<rect width="776.37" height="201.72" fill="white"/>
</clipPath>
</defs>
</svg>
